<svg xmlns="http://www.w3.org/2000/svg" viewBox="0 0 1804 688">
    <path fill="#0F2538" d="M684.3188 344.1553c0 186.39-151.101 337.484-337.484 337.484-186.383 0-337.484-151.094-337.484-337.484 0-186.389 151.101-337.478 337.484-337.478 186.383 0 337.484 151.089 337.484 337.478"></path>
    <path fill="#FFF" d="M278.1138 269.7666c-13.485 0-25.592 3.348-36.346 10.068-10.766 6.714-19.097 15.694-25 26.957-5.908 11.257-8.872 23.49-8.872 36.679 0 13.649 3.021 26.221 9.049 37.711 6.022 11.49 14.416 20.589 25.169 27.297 10.754 6.714 22.874 10.074 36.346 10.074 13.485 0 25.648-3.643 36.528-10.931 10.873-7.273 19.732-17.857 26.592-31.732h70.204c-5.436 20.023-14.654 37.484-27.649 52.385-13.012 14.907-28.611 26.453-46.815 34.634-18.198 8.199-37.579 12.283-58.149 12.283-18.67 0-36.346-3.185-53.001-9.559-16.669-6.355-31.633-15.806-44.872-28.309-13.944-12.976-24.176-27.474-30.663-43.513-6.5-16.04-9.76-33.841-9.76-53.404 0-22.075 6.041-42.89 18.085-62.452 12.062-19.564 28.498-35.264 49.288-47.087 20.81-11.83 43.381-17.746 67.739-17.746 18.204 0 34.747 2.505 49.641 7.501 14.888 5.009 28.839 12.856 41.832 23.559 25.057 20.689 39.832 43.897 44.324 69.614h-70.204c-5.67-13.655-14.24-24.402-25.699-32.261-11.477-7.841-24.069-11.768-37.767-11.768"></path>
    <path fill="#FFF" d="M617.3047 344.4932c0-13.195-3.071-25.535-9.225-37.024-6.148-11.485-14.661-20.64-25.528-27.467-10.88-6.822-23.176-10.232-36.874-10.232-13.718 0-25.95 3.348-36.704 10.068-10.76 6.708-19.211 15.693-25.359 26.944-6.142 11.27-9.212 23.503-9.212 36.691 0 13.881 3.07 26.504 9.212 37.875 6.148 11.376 14.725 20.419 25.717 27.133 10.987 6.714 23.459 10.068 37.403 10.068 13.478 0 25.585-3.354 36.358-10.068 10.748-6.714 19.142-15.693 25.17-26.957 6.021-11.257 9.042-23.609 9.042-37.031m0 0c0-13.195-3.071-25.535-9.225-37.024-6.148-11.485-14.661-20.64-25.528-27.467-10.88-6.822-23.176-10.232-36.874-10.232-13.718 0-25.95 3.348-36.704 10.068-10.76 6.708-19.211 15.693-25.359 26.944-6.142 11.27-9.212 23.503-9.212 36.691 0 13.881 3.07 26.504 9.212 37.875 6.148 11.376 14.725 20.419 25.717 27.133 10.987 6.714 23.459 10.068 37.403 10.068 13.478 0 25.585-3.354 36.358-10.068 10.748-6.714 19.142-15.693 25.17-26.957 6.021-11.257 9.042-23.609 9.042-37.031m-209.936 5.462c0-25.705 5.978-48.968 17.915-69.783 11.937-20.81 28.423-37.196 49.471-49.138 21.042-11.95 44.677-17.922 70.923-17.922 25.05 0 48.225 5.752 69.494 17.235 21.281 11.497 38.126 27.134 50.529 46.923 12.415 19.79 18.619 41.518 18.619 65.184 0 24.56-6.028 46.974-18.085 67.223-12.056 20.255-28.435 36.232-49.113 47.942-20.683 11.717-43.424 17.575-68.26 17.575-24.591 0-47.691-5.292-69.325-15.87-21.62-10.577-39.063-25.421-52.296-44.525-13.24-19.117-19.872-40.725-19.872-64.844"></path>
    <path fill="#CD202C" d="M617.3047 344.4932c0-13.195-3.071-25.535-9.225-37.024-6.148-11.485-14.661-20.64-25.528-27.467-10.88-6.822-23.176-10.232-36.874-10.232-13.718 0-25.95 3.348-36.704 10.068-10.76 6.708-19.211 15.693-25.359 26.944-6.142 11.27-9.212 23.503-9.212 36.691 0 13.881 3.07 26.504 9.212 37.875 6.148 11.376 14.725 20.419 25.717 27.133 10.987 6.714 23.459 10.068 37.403 10.068 13.478 0 25.585-3.354 36.358-10.068 10.748-6.714 19.142-15.693 25.17-26.957 6.021-11.257 9.042-23.609 9.042-37.031M881.748 217.9004v56.632h-95.369v43.009h91.958v56.638h-91.958v96.238h-77.416v-252.517zM1083.7617 217.9004v56.632h-98.37v39.259h95.375v56.644h-95.375v43.33h98.37v56.652h-175.786v-252.517zM1180.374 470.416h-70.426V217.894h63.429l112.056 159.709-3.115-159.709h70.425v252.522h-63.818l-110.483-154.241zM1484.2031 266.8232c-7.695 0-14.266 1.938-19.683 5.796-5.418 3.882-8.124 8.538-8.124 13.994 0 7.061 3.701 12.755 11.107 17.065 7.425 4.33 20.967 9.898 40.631 16.725 23.111 7.961 40.92 15.7 53.466 23.201 12.554 7.507 21.319 15.48 26.303 23.893 4.989 8.413 7.482 18.424 7.482 30.027 0 24.352-9.829 43.33-29.499 56.991-19.683 13.648-46.615 20.463-80.846 20.463-35.074 0-62.862-7.161-83.395-21.495-20.512-14.334-30.789-34.804-30.789-61.421v-5.462h80.406c.29 10.465 3.429 18.827 9.401 25.082 6.003 6.261 13.976 9.382 23.955 9.382 8.274 0 15.404-2.322 21.389-6.991 5.977-4.669 8.972-10.407 8.972-17.241 0-7.96-4.782-14.504-14.321-19.613-9.559-5.117-23.169-10.409-40.838-15.876-1.145-.448-2.505-.85-4.065-1.184-1.568-.339-3.065-.861-4.493-1.548-25.951-8.413-44.972-18.298-57.111-29.675-12.113-11.377-18.166-25.258-18.166-41.637 0-13.875 5.059-26.504 15.184-37.874 10.124-11.377 23.659-20.313 40.637-26.788 16.958-6.487 35.143-9.728 54.53-9.728 20.237 0 38.913 3.537 56.022 10.584 17.097 7.041 29.732 15.983 37.849 26.787 8.124 10.805 12.333 24.503 12.617 41.115h-79.977c-1.718-8.872-4.859-15.183-9.415-18.94-4.561-3.75-10.973-5.632-19.229-5.632M1789.6006 217.6875v56.639h-98.371v39.253h95.375v56.644h-95.375v43.33h98.371v56.657h-175.787v-252.523z"></path>
    <path fill="#0F2538" d="M1292.0127 523.6172h16.216l-42.272 121.531h-14.941l-40.995-121.531h16.034l32.614 96.569zM1326.089 645.148h15.305V523.617h-15.305zM1379.8403 612.5342c.729 13.847 8.199 21.136 21.5 21.136 13.666 0 23.323-8.382 23.323-20.59 0-10.567-5.467-15.487-24.598-21.864-14.394-4.92-19.132-7.288-24.598-12.208-6.195-5.649-9.474-13.665-9.474-22.958 0-20.589 14.758-34.62 36.259-34.62 21.5 0 35.529 13.666 36.076 34.802h-15.305c-.183-6.195-.911-9.11-2.915-12.572-3.462-5.284-10.204-8.564-18.039-8.564-12.025 0-20.589 8.2-20.589 19.861 0 5.83 2.551 10.932 6.924 14.029 3.826 2.734 7.106 4.192 19.496 8.565 12.937 4.554 19.131 7.834 24.051 13.118 5.284 5.648 8.199 13.301 8.199 21.5 0 20.954-15.487 35.166-38.263 35.166-15.487 0-26.055-5.466-32.432-16.399-2.916-4.92-4.191-10.021-4.191-15.851v-2.551h14.576zM1464.568 645.148h15.305V523.617h-15.305zM1520.5068 584.4736c0 28.242 18.585 48.831 43.729 48.831 12.208 0 24.234-5.283 32.433-14.576 7.106-7.835 11.661-20.953 11.661-33.344 0-16.216-4.373-28.059-13.847-37.17-8.018-7.834-19.132-12.571-29.882-12.571-25.327 0-44.094 20.77-44.094 48.83m89.281-42.089c9.839 11.479 14.212 24.962 14.212 43.183 0 18.949-7.288 35.894-20.59 47.191-10.932 9.475-24.779 14.576-38.809 14.576-18.038 0-35.713-8.563-47.009-22.775-8.381-10.568-12.754-24.233-12.754-39.539 0-36.259 25.69-63.59 60.127-63.59 16.945 0 33.162 7.653 44.823 20.954M1664.2705 645.1484h-15.305v-121.531h14.03l64.865 91.468v-91.468h15.305v121.531h-13.483l-65.412-92.925zM1760.5986 537.1475h-2.1v-14.871h-4.249v-1.8h10.573v1.8h-4.224zM1768.9238 537.1475h-2.099v-16.671h2.075l6.172 12.497 6.249-12.497h2.05v16.671h-2.099v-12.197l-6.2 12.372-6.148-12.397z"></path>
</svg>